# magiccircleblack02 pskx recentered
o magiccircleblack02
v 0.501625 0.009882 -0.501625
v 0.501625 0.009882 0.501625
v -0.501625 0.009882 -0.501625
v -0.501625 0.009882 0.501625
v 0.475801 0.023673 -0.475802
v 0.475801 0.023673 0.475801
v -0.475801 0.023673 -0.475801
v -0.475801 0.023673 0.475802
v 0.429772 0.034678 -0.429772
v 0.429772 0.034678 0.429772
v -0.429772 0.034678 -0.429772
v -0.429772 0.034678 0.429772
v 0.396048 0.048468 -0.396049
v 0.396048 0.048468 0.396049
v -0.396049 0.048468 -0.396048
v -0.396048 0.048468 0.396049
v 0.358971 0.060849 -0.358971
v 0.358971 0.060849 0.358972
v -0.358971 0.060849 -0.358971
v -0.358971 0.060849 0.358972
v 0.316019 0.074639 -0.316019
v 0.316019 0.074639 0.316019
v -0.316019 0.074639 -0.316019
v -0.316019 0.074639 0.316019
v 0.260132 0.088395 -0.260132
v 0.260132 0.088395 0.260132
v -0.260132 0.088395 -0.260132
v -0.260132 0.088395 0.260132
v 0.222752 0.102186 -0.222752
v 0.222752 0.102186 0.222752
v -0.222752 0.102186 -0.222752
v -0.222752 0.102186 0.222752
v -0.330087 -0.095610 -0.000000
v -0.107408 0.117587 -0.078036
v -0.132763 0.117587 -0.000000
v -0.267046 -0.095610 -0.194020
v -0.041026 0.117587 -0.126265
v -0.102002 -0.095610 -0.313931
v 0.041026 0.117587 -0.126265
v 0.102002 -0.095610 -0.313931
v 0.107408 0.117587 -0.078036
v 0.267046 -0.095610 -0.194020
v 0.132763 0.117587 0.000000
v 0.330087 -0.095610 0.000000
v 0.107408 0.117587 0.078036
v 0.267046 -0.095610 0.194020
v 0.041026 0.117587 0.126265
v 0.102002 -0.095610 0.313931
v -0.041026 0.117587 0.126265
v -0.102002 -0.095610 0.313931
v -0.107408 0.117587 0.078036
v -0.267046 -0.095610 0.194020
v 0.041026 0.117587 -0.126265
v 0.154228 -0.095610 -0.474664
v 0.102002 -0.095610 -0.313931
v -0.041026 0.117587 0.126265
v -0.102002 -0.095610 0.313931
v -0.154228 -0.095610 0.474664
v -0.041026 0.117587 -0.126265
v -0.154228 -0.095610 -0.474664
v -0.102002 -0.095610 -0.313931
v 0.041026 0.117587 0.126265
v 0.102002 -0.095610 0.313931
v 0.154228 -0.095610 0.474664
v -0.107408 0.117587 -0.078036
v -0.403773 -0.095610 -0.293358
v -0.267046 -0.095610 -0.194020
v 0.107408 0.117587 0.078036
v 0.267046 -0.095610 0.194020
v 0.403773 -0.095610 0.293358
v -0.132763 0.117587 -0.000000
v -0.499091 -0.095610 -0.000000
v -0.330087 -0.095610 -0.000000
v 0.132763 0.117587 0.000000
v 0.330087 -0.095610 0.000000
v 0.499091 -0.095610 0.000000
v 0.107408 0.117587 -0.078036
v 0.403773 -0.095610 -0.293359
v 0.267046 -0.095610 -0.194020
v -0.107408 0.117587 0.078036
v -0.267046 -0.095610 0.194020
v -0.403773 -0.095610 0.293358
v 0.575141 -0.042156 -0.575141
v 0.575141 -0.042156 0.575141
v -0.575141 -0.042156 -0.575141
v -0.575141 -0.042156 0.575141
v 0.535142 -0.009837 -0.535142
v 0.535142 -0.009837 0.535142
v -0.535142 -0.009837 -0.535142
v -0.535142 -0.009837 0.535142
vt 0.316600 0.878700
vt 0.316600 0.213500
vt 0.981800 0.878700
vt 0.981800 0.213500
vt 0.316600 0.878700
vt 0.316600 0.213500
vt 0.981800 0.878700
vt 0.981800 0.213500
vt 0.316600 0.878700
vt 0.316600 0.213500
vt 0.981800 0.878700
vt 0.981800 0.213500
vt 0.316600 0.878700
vt 0.316600 0.213500
vt 0.981800 0.878700
vt 0.981800 0.213500
vt 0.316600 0.878700
vt 0.316600 0.213500
vt 0.981800 0.878700
vt 0.981800 0.213500
vt 0.316600 0.878700
vt 0.316600 0.213500
vt 0.981800 0.878700
vt 0.981800 0.213500
vt 0.316600 0.878700
vt 0.316600 0.213500
vt 0.981800 0.878700
vt 0.981800 0.213500
vt 0.316600 0.878700
vt 0.316600 0.213500
vt 0.981800 0.878700
vt 0.981800 0.213500
vt 0.190100 0.180400
vt 0.197600 0.415300
vt 0.197600 0.415300
vt 0.190100 0.180400
vt 0.197600 0.415300
vt 0.190100 0.180400
vt 0.197600 0.415300
vt 0.190100 0.180400
vt 0.197500 0.415300
vt 0.190100 0.180400
vt 0.197500 0.415300
vt 0.190100 0.180400
vt 0.197500 0.415300
vt 0.190100 0.180400
vt 0.197600 0.415300
vt 0.190100 0.180400
vt 0.197600 0.415300
vt 0.190100 0.180400
vt 0.197600 0.415300
vt 0.190100 0.180400
vt 0.187000 0.414700
vt 0.080000 0.310000
vt 0.182900 0.181100
vt 0.186900 0.414700
vt 0.183000 0.181100
vt 0.080000 0.310000
vt 0.187000 0.414700
vt 0.080000 0.310000
vt 0.182900 0.181100
vt 0.186900 0.414700
vt 0.183000 0.181100
vt 0.080000 0.310000
vt 0.187000 0.414700
vt 0.080000 0.310000
vt 0.182900 0.181100
vt 0.186900 0.414700
vt 0.183000 0.181100
vt 0.080000 0.310000
vt 0.187000 0.414700
vt 0.080000 0.310000
vt 0.182900 0.181100
vt 0.186900 0.414700
vt 0.183000 0.181100
vt 0.080000 0.310000
vt 0.187000 0.414700
vt 0.080000 0.310000
vt 0.182900 0.181100
vt 0.186900 0.414700
vt 0.183000 0.181100
vt 0.080000 0.310000
vt 0.316600 0.878700
vt 0.316600 0.213500
vt 0.981800 0.878700
vt 0.981800 0.213500
vt 0.316600 0.878700
vt 0.316600 0.213500
vt 0.981800 0.878700
vt 0.981800 0.213500
f 54/54 55/55 53/53
f 48/48 47/47 46/46
f 49/49 47/47 48/48
f 50/50 49/49 48/48
f 51/51 49/49 50/50
f 52/52 51/51 50/50
f 35/35 51/51 52/52
f 33/33 35/35 52/52
f 34/34 35/35 33/33
f 36/36 34/34 33/33
f 37/37 34/34 36/36
f 38/38 37/37 36/36
f 39/39 37/37 38/38
f 40/40 39/39 38/38
f 41/41 39/39 40/40
f 42/42 41/41 40/40
f 43/43 41/41 42/42
f 44/44 43/43 42/42
f 45/45 43/43 44/44
f 46/46 45/45 44/44
f 47/47 45/45 46/46
f 81/81 82/82 80/80
f 6/6 7/7 5/5
f 7/7 6/6 8/8
f 10/10 11/11 9/9
f 11/11 10/10 12/12
f 14/14 15/15 13/13
f 15/15 14/14 16/16
f 18/18 19/19 17/17
f 19/19 18/18 20/20
f 22/22 23/23 21/21
f 23/23 22/22 24/24
f 26/26 27/27 25/25
f 27/27 26/26 28/28
f 30/30 31/31 29/29
f 31/31 30/30 32/32
f 84/84 85/85 83/83
f 85/85 84/84 86/86
f 88/88 89/89 87/87
f 89/89 88/88 90/90
f 2/2 3/3 1/1
f 3/3 2/2 4/4
f 57/57 58/58 56/56
f 78/78 79/79 77/77
f 60/60 61/61 59/59
f 75/75 76/76 74/74
f 63/63 64/64 62/62
f 72/72 73/73 71/71
f 66/66 67/67 65/65
f 69/69 70/70 68/68
