# magiccircleblack01 pskx recentered
o magiccircleblack01
v -0.176744 0.202470 0.310102
v -0.393582 0.043361 0.194718
v -0.239502 0.171446 0.144654
v -0.411395 0.034794 0.633072
v -0.000000 0.171446 0.318662
v -0.000000 0.043361 0.480672
v 0.176744 0.202470 0.310102
v 0.411395 0.034794 0.633071
v 0.239502 0.171446 0.144654
v 0.393582 0.043361 0.194717
v 0.285978 0.202470 -0.026085
v 0.665651 0.034794 -0.149448
v 0.148020 0.171446 -0.136897
v 0.243247 0.043361 -0.267966
v -0.000000 0.202470 -0.233860
v -0.000000 0.034794 -0.633072
v -0.148020 0.171446 -0.136897
v -0.243247 0.043361 -0.267966
v -0.285978 0.202470 -0.026085
v -0.665651 0.034794 -0.149448
v 0.260446 0.168777 0.425309
v 0.000000 0.170189 -0.319310
v 0.000000 0.168777 -0.376262
v 0.226971 0.170189 0.379234
v 0.260446 0.168777 0.425309
v -0.421411 0.168777 -0.070090
v -0.367246 0.170189 -0.052490
v 0.226971 0.170189 0.379234
v -0.421411 0.168777 -0.070090
v 0.421411 0.168777 -0.070089
v 0.367246 0.170189 -0.052490
v -0.367246 0.170189 -0.052490
v 0.421411 0.168777 -0.070089
v -0.260446 0.168777 0.425309
v -0.226971 0.170189 0.379234
v 0.367246 0.170189 -0.052490
v 0.000000 0.168777 -0.376262
v -0.226971 0.170189 0.379234
v -0.260446 0.168777 0.425309
v 0.000000 0.170189 -0.319310
v 0.355249 0.067440 0.555793
v 0.000000 0.069366 -0.459867
v 0.000000 0.067440 -0.537550
v 0.309588 0.069366 0.492947
v 0.355249 0.067440 0.555793
v -0.574804 0.067440 -0.119930
v -0.500924 0.069366 -0.095924
v 0.309588 0.069366 0.492947
v -0.574804 0.067440 -0.119930
v 0.574805 0.067440 -0.119930
v 0.500924 0.069366 -0.095924
v -0.500924 0.069366 -0.095924
v 0.574805 0.067440 -0.119930
v -0.355249 0.067440 0.555793
v -0.309588 0.069366 0.492947
v 0.500924 0.069366 -0.095924
v 0.000000 0.067440 -0.537550
v -0.309588 0.069366 0.492947
v -0.355249 0.067440 0.555793
v 0.000000 0.069366 -0.459867
vt 0.218900 0.606300
vt 0.221500 0.504900
vt 0.221100 0.606300
vt 0.218300 0.504900
vt 0.221100 0.606300
vt 0.221500 0.504900
vt 0.218900 0.606300
vt 0.218300 0.504900
vt 0.221100 0.606300
vt 0.221500 0.504900
vt 0.218900 0.606300
vt 0.218300 0.504900
vt 0.221100 0.606300
vt 0.221500 0.504900
vt 0.218900 0.606300
vt 0.218300 0.504900
vt 0.221100 0.606300
vt 0.221500 0.504900
vt 0.218900 0.606300
vt 0.218300 0.504900
vt 0.219200 0.564800
vt 0.219300 0.564800
vt 0.219300 0.564800
vt 0.219200 0.564800
vt 0.219200 0.564800
vt 0.219200 0.564800
vt 0.219300 0.564800
vt 0.219300 0.564800
vt 0.219200 0.564800
vt 0.219200 0.564800
vt 0.219300 0.564800
vt 0.219300 0.564800
vt 0.219200 0.564800
vt 0.219200 0.564800
vt 0.219300 0.564800
vt 0.219300 0.564800
vt 0.219200 0.564800
vt 0.219300 0.564800
vt 0.219300 0.564800
vt 0.219200 0.564800
vt 0.219200 0.564800
vt 0.219300 0.564800
vt 0.219300 0.564800
vt 0.219200 0.564800
vt 0.219200 0.564800
vt 0.219200 0.564800
vt 0.219300 0.564800
vt 0.219300 0.564800
vt 0.219200 0.564800
vt 0.219200 0.564800
vt 0.219300 0.564800
vt 0.219300 0.564800
vt 0.219200 0.564800
vt 0.219200 0.564800
vt 0.219300 0.564800
vt 0.219300 0.564800
vt 0.219200 0.564800
vt 0.219300 0.564800
vt 0.219300 0.564800
vt 0.219200 0.564800
f 21/21 24/24 22/22
f 22/22 23/23 21/21
f 14/14 13/13 15/15
f 13/13 14/14 11/11
f 14/14 12/12 11/11
f 12/12 10/10 11/11
f 10/10 9/9 11/11
f 9/9 10/10 7/7
f 10/10 8/8 7/7
f 8/8 6/6 7/7
f 6/6 5/5 7/7
f 5/5 6/6 1/1
f 6/6 4/4 1/1
f 4/4 2/2 1/1
f 2/2 3/3 1/1
f 3/3 2/2 19/19
f 2/2 20/20 19/19
f 20/20 18/18 19/19
f 18/18 17/17 19/19
f 17/17 18/18 15/15
f 18/18 16/16 15/15
f 16/16 14/14 15/15
f 57/57 60/60 58/58
f 58/58 59/59 57/57
f 54/54 55/55 53/53
f 56/56 53/53 55/55
f 50/50 51/51 49/49
f 52/52 49/49 51/51
f 46/46 47/47 45/45
f 48/48 45/45 47/47
f 41/41 44/44 42/42
f 42/42 43/43 41/41
f 37/37 40/40 38/38
f 38/38 39/39 37/37
f 34/34 35/35 33/33
f 36/36 33/33 35/35
f 30/30 31/31 29/29
f 32/32 29/29 31/31
f 26/26 27/27 25/25
f 28/28 25/25 27/27
